<?xml version="1.0" encoding="UTF-8"?>
<svg width="32px" height="32px" viewBox="0 0 32 32" version="1.1" xmlns="http://www.w3.org/2000/svg" xmlns:xlink="http://www.w3.org/1999/xlink">
    <title>video--add</title>
    <g id="Page-1" stroke="none" stroke-width="1" fill="none" fill-rule="evenodd">
        <g id="video--add">
            <polygon id="Path" fill="#FFFFFF" fill-rule="nonzero" points="18 15 14 15 14 11 12 11 12 15 8 15 8 17 12 17 12 21 14 21 14 17 18 17"></polygon>
            <path d="M21,26 L4,26 C2.89595593,25.9987325 2.00126747,25.1040441 2,24 L2,8 C2.00126747,6.89595593 2.89595593,6.00126747 4,6 L21,6 C22.1040441,6.00126747 22.9987325,6.89595593 23,8 L23,12.0566 L28.4189,8.1866 C28.7235835,7.96859942 29.1245947,7.93929167 29.4577363,8.11067703 C29.790878,8.2820624 30,8.62535851 30,9 L30,23 C30,23.3746595 29.7909299,23.7179899 29.4577808,23.8894001 C29.1246318,24.0608104 28.7235981,24.0315111 28.4189,23.8135 L23,19.9434 L23,24 C22.9987325,25.1040441 22.1040441,25.9987325 21,26 Z M4,8 L4,24.001 L21,24 L21,18 C20.9997601,17.6253405 21.2090701,17.2820101 21.5422192,17.1105999 C21.8753682,16.9391896 22.2764019,16.9684889 22.5811,17.1865 L28,21.0566 L28,10.9434 L22.5811,14.8134 C22.2764165,15.0314006 21.8754053,15.0607083 21.5422637,14.889323 C21.209122,14.7179376 20.9997976,14.3746415 21,14 L21,8 L4,8 Z" id="Shape" fill="#FFFFFF" fill-rule="nonzero"></path>
            <rect id="_Transparent_Rectangle_" x="0" y="0" width="32" height="32"></rect>
        </g>
    </g>
</svg>